<svg width="45" height="13" viewBox="0 0 45 13" fill="none" xmlns="http://www.w3.org/2000/svg">
<path d="M4.92639 0.841381C6.28105 0.841381 7.28372 1.06538 7.93439 1.51338C8.59572 1.95071 8.92639 2.72938 8.92639 3.84938C8.92639 4.96938 8.60105 5.86005 7.95039 6.52138C7.29972 7.17205 6.24905 7.49738 4.79839 7.49738H3.45439L3.40639 10.9694L4.65439 11.0814C4.65439 11.38 4.56372 11.7 4.38239 12.0414H0.782387L0.734387 11.4974C1.18239 11.3267 1.64105 11.1987 2.11039 11.1134C2.04639 6.95338 1.99305 3.86005 1.95039 1.83338C1.66239 1.78005 1.19305 1.65205 0.542387 1.44938L0.622387 0.841381H4.92639ZM4.63839 6.45738C5.55572 6.44671 6.25439 6.21738 6.73439 5.76938C7.21439 5.31071 7.45439 4.70805 7.45439 3.96138C7.45439 3.21471 7.21972 2.69738 6.75039 2.40938C6.28105 2.11071 5.52905 1.96138 4.49439 1.96138C4.30239 1.96138 3.97705 1.96671 3.51839 1.97738C3.51839 1.98805 3.50239 3.48671 3.47039 6.47338L4.63839 6.45738ZM11.9855 0.153381C12.3162 0.153381 12.5508 0.164048 12.6895 0.185381C12.6895 0.558715 12.6202 0.985381 12.4815 1.46538C12.3855 7.75872 12.3375 10.9214 12.3375 10.9534L13.6815 11.0814C13.6815 11.38 13.5908 11.7 13.4095 12.0414H9.72951L9.68151 11.4814C10.1722 11.3107 10.6522 11.1827 11.1215 11.0974L10.9615 1.41738C10.3748 1.38538 9.90551 1.32138 9.55351 1.22538L9.61751 0.393381C10.1615 0.233381 10.9508 0.153381 11.9855 0.153381ZM20.9763 6.80938L20.8963 10.9374C21.3549 10.9694 21.8136 11.044 22.2723 11.1614L22.2403 11.7214C22.0696 11.8067 21.7603 11.9027 21.3123 12.0094C20.8749 12.1054 20.4429 12.1534 20.0163 12.1534C19.8243 11.7694 19.7176 11.4014 19.6963 11.0494C18.4803 11.8494 17.6269 12.2494 17.1363 12.2494C16.3789 12.2494 15.7709 12.0467 15.3123 11.6414C14.8536 11.236 14.6243 10.6707 14.6243 9.94538C14.6243 8.27071 15.6483 7.40671 17.6963 7.35338C18.8909 7.32138 19.4936 7.30538 19.5043 7.30538L19.4883 6.76138C19.4669 6.02538 19.3283 5.49738 19.0723 5.17738C18.8163 4.84671 18.3576 4.68138 17.6963 4.68138C17.4189 4.68138 17.1203 4.74538 16.8003 4.87338L16.4163 6.47338C16.3629 6.48405 16.2723 6.48938 16.1443 6.48938L15.4883 6.44138C15.3176 5.98271 15.2269 5.34805 15.2163 4.53738C15.4189 4.43071 15.8829 4.27071 16.6083 4.05738C17.3336 3.83338 17.7976 3.72138 18.0003 3.72138C19.0883 3.72138 19.8563 3.96138 20.3043 4.44138C20.7523 4.92138 20.9763 5.71071 20.9763 6.80938ZM17.4883 11.1614C17.7976 11.1614 18.5123 10.8147 19.6323 10.1214L19.5523 8.12138C18.8269 8.18538 18.2189 8.24405 17.7283 8.29738C17.2376 8.35071 16.8429 8.49471 16.5443 8.72938C16.2456 8.95338 16.0963 9.31072 16.0963 9.80138C16.0963 10.708 16.5603 11.1614 17.4883 11.1614ZM28.1613 3.72138C29.1853 3.72138 29.9266 3.97738 30.3853 4.48938C30.8439 4.99071 31.0733 5.75871 31.0733 6.79338C31.0733 7.09205 31.0306 8.47872 30.9453 10.9534L32.2893 11.0814C32.2893 11.38 32.1986 11.7 32.0173 12.0414H28.3373L28.2893 11.4814C28.7799 11.3107 29.2599 11.1827 29.7293 11.0974C29.6653 8.30272 29.6066 6.75071 29.5533 6.44138C29.5106 6.12138 29.4359 5.84405 29.3293 5.60938C29.2226 5.37471 29.0626 5.20938 28.8493 5.11338C28.6359 5.01738 28.3533 4.96938 28.0013 4.96938C27.2973 4.96938 26.6146 5.14005 25.9533 5.48138C25.8893 7.91338 25.8466 9.73738 25.8253 10.9534L27.1693 11.0814C27.1693 11.38 27.0786 11.7 26.8973 12.0414H23.2173L23.1693 11.4814C23.6599 11.3107 24.1399 11.1827 24.6093 11.0974C24.5453 8.38805 24.4919 6.38271 24.4493 5.08138C23.8626 5.04938 23.3933 4.98538 23.0413 4.88938L23.1053 4.05738C23.6813 3.89738 24.5186 3.81738 25.6173 3.81738C25.7453 4.00938 25.8413 4.28671 25.9053 4.64938C26.3639 4.40405 26.8226 4.19071 27.2813 4.00938C27.7506 3.81738 28.0439 3.72138 28.1613 3.72138ZM34.2126 11.0494L34.0846 5.01738H32.8526L32.8046 4.45738C32.9113 4.38271 33.2206 4.24405 33.7326 4.04138L35.0446 1.99338C35.258 2.01471 35.4233 2.06805 35.5406 2.15338L35.5246 3.91338C36.3246 3.91338 36.9806 3.96671 37.4926 4.07338C37.4926 4.36138 37.402 4.67605 37.2206 5.01738H35.4926C35.4713 6.29738 35.45 8.23872 35.4286 10.8414C36.026 10.8734 36.6233 10.98 37.2206 11.1614L37.2046 11.7214C37.0553 11.8174 36.6713 11.9294 36.0526 12.0574C35.4446 12.1854 34.9433 12.2494 34.5486 12.2494C34.4953 12.164 34.426 11.9827 34.3406 11.7054C34.2553 11.4174 34.2126 11.1987 34.2126 11.0494ZM39.9191 11.0174C40.2925 11.1774 40.7458 11.2574 41.2791 11.2574C41.8231 11.2574 42.2498 11.156 42.5591 10.9534C42.8685 10.7507 43.0231 10.4734 43.0231 10.1214C43.0231 9.76938 42.8791 9.47605 42.5911 9.24138C42.3031 9.00671 41.9511 8.79871 41.5351 8.61738C41.1191 8.43605 40.7031 8.24405 40.2871 8.04138C39.8711 7.83871 39.5191 7.57205 39.2311 7.24138C38.9431 6.91071 38.7991 6.52671 38.7991 6.08938C38.7991 5.35338 39.0445 4.77738 39.5351 4.36138C40.0258 3.93471 40.7031 3.72138 41.5671 3.72138C42.4418 3.72138 43.2631 3.91871 44.0311 4.31338C44.0418 4.42005 44.0471 4.70805 44.0471 5.17738C44.0471 5.63605 43.9991 6.03071 43.9031 6.36138C43.6471 6.44672 43.3431 6.48938 42.9911 6.48938L42.4631 4.85738C42.2285 4.74005 41.9085 4.68138 41.5031 4.68138C41.1085 4.68138 40.7938 4.78805 40.5591 5.00138C40.3245 5.20405 40.2071 5.46538 40.2071 5.78538C40.2071 6.09471 40.3511 6.36671 40.6391 6.60138C40.9378 6.83605 41.2951 7.04938 41.7111 7.24138C42.1271 7.42271 42.5431 7.62005 42.9591 7.83338C43.3751 8.03605 43.7271 8.30805 44.0151 8.64938C44.3138 8.98005 44.4631 9.36405 44.4631 9.80138C44.4631 10.5694 44.1645 11.172 43.5671 11.6094C42.9805 12.036 42.2551 12.2494 41.3911 12.2494C40.9218 12.2494 40.4205 12.1747 39.8871 12.0254C39.3538 11.8654 38.9058 11.6627 38.5431 11.4174C38.5431 10.7027 38.6071 10.068 38.7351 9.51338C38.9805 9.47072 39.3111 9.44938 39.7271 9.44938L39.9191 11.0174Z" fill="black"/>
</svg>
